<mxfile host="65bd71144e" modified="2020-12-20T19:51:38.122Z" agent="5.0 (Windows NT 10.0; Win64; x64) AppleWebKit/537.36 (KHTML, like Gecko) Code/1.52.1 Chrome/83.0.4103.122 Electron/9.3.5 Safari/537.36" etag="7xMLKvr4CKSnBPf-Yo7Y" version="13.10.0" type="embed">
    <diagram id="yyxD0GULbpneVpScz2GM" name="Page-1">
        <mxGraphModel dx="815" dy="509" grid="1" gridSize="10" guides="1" tooltips="1" connect="1" arrows="1" fold="1" page="0" pageScale="1" pageWidth="827" pageHeight="1169" background="#ffffff" math="0" shadow="0">
            <root>
                <mxCell id="0"/>
                <mxCell id="1" parent="0"/>
                <mxCell id="2" value="" style="rounded=0;whiteSpace=wrap;html=1;fontColor=#000000;fillColor=none;strokeColor=#1A1A1A;" parent="1" vertex="1">
                    <mxGeometry x="140" y="80" width="480" height="500" as="geometry"/>
                </mxCell>
                <mxCell id="5" value="InquireScape" style="shape=card;whiteSpace=wrap;html=1;direction=north;rotation=0;flipH=1;size=20;fontColor=#000000;strokeColor=#1A1A1A;fillColor=#B3B3B3;" parent="1" vertex="1">
                    <mxGeometry x="140" y="80" width="140" height="40" as="geometry"/>
                </mxCell>
                <mxCell id="20" value="" style="edgeStyle=orthogonalEdgeStyle;rounded=0;orthogonalLoop=1;jettySize=auto;html=1;endArrow=open;endFill=0;entryX=0;entryY=0.5;entryDx=0;entryDy=0;fontColor=#000000;strokeColor=#1A1A1A;" parent="1" source="6" target="12" edge="1">
                    <mxGeometry relative="1" as="geometry"/>
                </mxCell>
                <mxCell id="6" value="&lt;font&gt;Speaker&lt;/font&gt;" style="shape=umlActor;verticalLabelPosition=bottom;verticalAlign=top;html=1;outlineConnect=0;labelPosition=left;align=right;fillColor=#1ba1e2;fontColor=#000000;strokeColor=#1A1A1A;" parent="1" vertex="1">
                    <mxGeometry x="-10" y="130" width="60" height="130" as="geometry"/>
                </mxCell>
                <mxCell id="17" value="" style="edgeStyle=orthogonalEdgeStyle;rounded=0;orthogonalLoop=1;jettySize=auto;html=1;endArrow=open;endFill=0;entryX=0;entryY=0.5;entryDx=0;entryDy=0;fontColor=#000000;strokeColor=#1A1A1A;" parent="1" source="7" target="15" edge="1">
                    <mxGeometry relative="1" as="geometry">
                        <Array as="points">
                            <mxPoint x="160" y="425"/>
                            <mxPoint x="160" y="345"/>
                        </Array>
                    </mxGeometry>
                </mxCell>
                <mxCell id="18" value="" style="edgeStyle=orthogonalEdgeStyle;rounded=0;orthogonalLoop=1;jettySize=auto;html=1;endArrow=open;endFill=0;entryX=0;entryY=0.5;entryDx=0;entryDy=0;fontColor=#000000;strokeColor=#1A1A1A;" parent="1" source="7" target="14" edge="1">
                    <mxGeometry relative="1" as="geometry"/>
                </mxCell>
                <mxCell id="7" value="&lt;font&gt;Moderator&lt;/font&gt;" style="shape=umlActor;verticalLabelPosition=bottom;verticalAlign=top;html=1;outlineConnect=0;labelPosition=left;align=right;fillColor=#1ba1e2;fontColor=#000000;strokeColor=#1A1A1A;" parent="1" vertex="1">
                    <mxGeometry x="-10" y="360" width="60" height="130" as="geometry"/>
                </mxCell>
                <mxCell id="12" value="View/Sort Questions" style="ellipse;whiteSpace=wrap;html=1;fontColor=#000000;strokeColor=#1A1A1A;fillColor=#B3B3B3;" parent="1" vertex="1">
                    <mxGeometry x="290" y="150" width="180" height="90" as="geometry"/>
                </mxCell>
                <mxCell id="13" value="Ban User from posting" style="ellipse;whiteSpace=wrap;html=1;fontColor=#000000;strokeColor=#1A1A1A;fillColor=#B3B3B3;" parent="1" vertex="1">
                    <mxGeometry x="180" y="450" width="180" height="90" as="geometry"/>
                </mxCell>
                <mxCell id="14" value="Add Questions" style="ellipse;whiteSpace=wrap;html=1;fontColor=#000000;strokeColor=#1A1A1A;fillColor=#B3B3B3;" parent="1" vertex="1">
                    <mxGeometry x="400" y="380" width="180" height="90" as="geometry"/>
                </mxCell>
                <mxCell id="15" value="Manage Questions" style="ellipse;whiteSpace=wrap;html=1;fontColor=#000000;strokeColor=#1A1A1A;fillColor=#B3B3B3;" parent="1" vertex="1">
                    <mxGeometry x="180" y="300" width="180" height="90" as="geometry"/>
                </mxCell>
                <mxCell id="19" value="" style="edgeStyle=orthogonalEdgeStyle;rounded=0;orthogonalLoop=1;jettySize=auto;html=1;endArrow=open;endFill=0;entryX=0;entryY=0.5;entryDx=0;entryDy=0;fontColor=#000000;strokeColor=#1A1A1A;" parent="1" source="7" target="13" edge="1">
                    <mxGeometry relative="1" as="geometry">
                        <mxPoint x="60" y="435" as="sourcePoint"/>
                        <mxPoint x="410" y="435" as="targetPoint"/>
                        <Array as="points">
                            <mxPoint x="160" y="425"/>
                            <mxPoint x="160" y="495"/>
                        </Array>
                    </mxGeometry>
                </mxCell>
            </root>
        </mxGraphModel>
    </diagram>
</mxfile>